<mxfile host="app.diagrams.net" modified="2022-02-11T01:12:23.587Z" agent="5.0 (Macintosh; Intel Mac OS X 10_15_7) AppleWebKit/537.36 (KHTML, like Gecko) Chrome/98.0.4758.80 Safari/537.36" etag="aRCjgRmMKsj1yClr15Lz" version="16.5.5" type="github">
  <diagram id="sGwKK_VSJlkQcXx7H5ua" name="Page-1">
    <mxGraphModel dx="1263" dy="1224" grid="1" gridSize="10" guides="1" tooltips="1" connect="1" arrows="1" fold="1" page="1" pageScale="1" pageWidth="1169" pageHeight="827" math="0" shadow="0">
      <root>
        <mxCell id="0" />
        <mxCell id="1" parent="0" />
        <mxCell id="kIYaQyXWYugyOKS3lOpH-3" value="" style="rounded=1;arcSize=10;dashed=0;fillColor=none;gradientColor=none;strokeWidth=2;" vertex="1" parent="1">
          <mxGeometry x="80" y="40" width="350" height="520" as="geometry" />
        </mxCell>
        <mxCell id="kIYaQyXWYugyOKS3lOpH-5" value="AP Server" style="swimlane;" vertex="1" parent="1">
          <mxGeometry x="120" y="70" width="270" height="220" as="geometry" />
        </mxCell>
        <mxCell id="kIYaQyXWYugyOKS3lOpH-14" value="TOMCAT / FLASK" style="swimlane;fontStyle=0;childLayout=stackLayout;horizontal=1;startSize=30;horizontalStack=0;resizeParent=1;resizeParentMax=0;resizeLast=0;collapsible=1;marginBottom=0;" vertex="1" parent="kIYaQyXWYugyOKS3lOpH-5">
          <mxGeometry x="22.5" y="40" width="225" height="160" as="geometry" />
        </mxCell>
        <mxCell id="kIYaQyXWYugyOKS3lOpH-15" value="E-SHOP - LIMITED ITEM SELL" style="text;strokeColor=none;fillColor=none;align=left;verticalAlign=middle;spacingLeft=4;spacingRight=4;overflow=hidden;points=[[0,0.5],[1,0.5]];portConstraint=eastwest;rotatable=0;" vertex="1" parent="kIYaQyXWYugyOKS3lOpH-14">
          <mxGeometry y="30" width="225" height="30" as="geometry" />
        </mxCell>
        <mxCell id="kIYaQyXWYugyOKS3lOpH-16" value="GAME - LEADER-BOARD" style="text;strokeColor=none;fillColor=none;align=left;verticalAlign=middle;spacingLeft=4;spacingRight=4;overflow=hidden;points=[[0,0.5],[1,0.5]];portConstraint=eastwest;rotatable=0;" vertex="1" parent="kIYaQyXWYugyOKS3lOpH-14">
          <mxGeometry y="60" width="225" height="30" as="geometry" />
        </mxCell>
        <mxCell id="kIYaQyXWYugyOKS3lOpH-18" value="CRM - CALL CENTER LOG" style="text;strokeColor=none;fillColor=none;align=left;verticalAlign=middle;spacingLeft=4;spacingRight=4;overflow=hidden;points=[[0,0.5],[1,0.5]];portConstraint=eastwest;rotatable=0;" vertex="1" parent="kIYaQyXWYugyOKS3lOpH-14">
          <mxGeometry y="90" width="225" height="30" as="geometry" />
        </mxCell>
        <mxCell id="kIYaQyXWYugyOKS3lOpH-17" value="SALES - SALES ORDER" style="text;strokeColor=none;fillColor=none;align=left;verticalAlign=middle;spacingLeft=4;spacingRight=4;overflow=hidden;points=[[0,0.5],[1,0.5]];portConstraint=eastwest;rotatable=0;container=0;" vertex="1" parent="kIYaQyXWYugyOKS3lOpH-14">
          <mxGeometry y="120" width="225" height="40" as="geometry" />
        </mxCell>
        <mxCell id="kIYaQyXWYugyOKS3lOpH-19" value="Database" style="swimlane;" vertex="1" parent="1">
          <mxGeometry x="120" y="310" width="270" height="220" as="geometry" />
        </mxCell>
        <mxCell id="kIYaQyXWYugyOKS3lOpH-20" value="ORACLE" style="swimlane;fontStyle=0;childLayout=stackLayout;horizontal=1;startSize=30;horizontalStack=0;resizeParent=1;resizeParentMax=0;resizeLast=0;collapsible=1;marginBottom=0;" vertex="1" parent="kIYaQyXWYugyOKS3lOpH-19">
          <mxGeometry x="22.5" y="40" width="230" height="160" as="geometry" />
        </mxCell>
        <mxCell id="kIYaQyXWYugyOKS3lOpH-21" value="E-SHOP - HOT BLOCK" style="text;strokeColor=none;fillColor=none;align=left;verticalAlign=middle;spacingLeft=4;spacingRight=4;overflow=hidden;points=[[0,0.5],[1,0.5]];portConstraint=eastwest;rotatable=0;" vertex="1" parent="kIYaQyXWYugyOKS3lOpH-20">
          <mxGeometry y="30" width="230" height="30" as="geometry" />
        </mxCell>
        <mxCell id="kIYaQyXWYugyOKS3lOpH-22" value="GAME - RANK / ROLLUP" style="text;strokeColor=none;fillColor=none;align=left;verticalAlign=middle;spacingLeft=4;spacingRight=4;overflow=hidden;points=[[0,0.5],[1,0.5]];portConstraint=eastwest;rotatable=0;" vertex="1" parent="kIYaQyXWYugyOKS3lOpH-20">
          <mxGeometry y="60" width="230" height="30" as="geometry" />
        </mxCell>
        <mxCell id="kIYaQyXWYugyOKS3lOpH-23" value="CRM - HISTORICAL ARCHIVE" style="text;strokeColor=none;fillColor=none;align=left;verticalAlign=middle;spacingLeft=4;spacingRight=4;overflow=hidden;points=[[0,0.5],[1,0.5]];portConstraint=eastwest;rotatable=0;" vertex="1" parent="kIYaQyXWYugyOKS3lOpH-20">
          <mxGeometry y="90" width="230" height="30" as="geometry" />
        </mxCell>
        <mxCell id="kIYaQyXWYugyOKS3lOpH-24" value="SALES - LATENCY SPKIE" style="text;strokeColor=none;fillColor=none;align=left;verticalAlign=middle;spacingLeft=4;spacingRight=4;overflow=hidden;points=[[0,0.5],[1,0.5]];portConstraint=eastwest;rotatable=0;container=0;" vertex="1" parent="kIYaQyXWYugyOKS3lOpH-20">
          <mxGeometry y="120" width="230" height="40" as="geometry" />
        </mxCell>
        <mxCell id="kIYaQyXWYugyOKS3lOpH-25" value="" style="rounded=1;arcSize=10;dashed=0;fillColor=none;gradientColor=none;strokeWidth=2;" vertex="1" parent="1">
          <mxGeometry x="770" y="40" width="330" height="760" as="geometry" />
        </mxCell>
        <mxCell id="kIYaQyXWYugyOKS3lOpH-26" value="REDIS" style="swimlane;fontStyle=0;childLayout=stackLayout;horizontal=1;startSize=30;horizontalStack=0;resizeParent=1;resizeParentMax=0;resizeLast=0;collapsible=1;marginBottom=0;" vertex="1" parent="1">
          <mxGeometry x="820" y="60" width="225" height="60" as="geometry" />
        </mxCell>
        <mxCell id="kIYaQyXWYugyOKS3lOpH-27" value="HOTDEAL_QUANTITY" style="text;strokeColor=none;fillColor=none;align=left;verticalAlign=middle;spacingLeft=4;spacingRight=4;overflow=hidden;points=[[0,0.5],[1,0.5]];portConstraint=eastwest;rotatable=0;" vertex="1" parent="kIYaQyXWYugyOKS3lOpH-26">
          <mxGeometry y="30" width="225" height="30" as="geometry" />
        </mxCell>
        <mxCell id="kIYaQyXWYugyOKS3lOpH-31" value="REDIS" style="swimlane;fontStyle=0;childLayout=stackLayout;horizontal=1;startSize=30;horizontalStack=0;resizeParent=1;resizeParentMax=0;resizeLast=0;collapsible=1;marginBottom=0;" vertex="1" parent="1">
          <mxGeometry x="820" y="150" width="225" height="60" as="geometry" />
        </mxCell>
        <mxCell id="kIYaQyXWYugyOKS3lOpH-32" value="zrevrank()" style="text;strokeColor=none;fillColor=none;align=left;verticalAlign=middle;spacingLeft=4;spacingRight=4;overflow=hidden;points=[[0,0.5],[1,0.5]];portConstraint=eastwest;rotatable=0;" vertex="1" parent="kIYaQyXWYugyOKS3lOpH-31">
          <mxGeometry y="30" width="225" height="30" as="geometry" />
        </mxCell>
        <mxCell id="kIYaQyXWYugyOKS3lOpH-33" value="MONGODB" style="swimlane;fontStyle=0;childLayout=stackLayout;horizontal=1;startSize=30;horizontalStack=0;resizeParent=1;resizeParentMax=0;resizeLast=0;collapsible=1;marginBottom=0;" vertex="1" parent="1">
          <mxGeometry x="820" y="240" width="225" height="60" as="geometry" />
        </mxCell>
        <mxCell id="kIYaQyXWYugyOKS3lOpH-34" value="DOCUMENT" style="text;strokeColor=none;fillColor=none;align=left;verticalAlign=middle;spacingLeft=4;spacingRight=4;overflow=hidden;points=[[0,0.5],[1,0.5]];portConstraint=eastwest;rotatable=0;" vertex="1" parent="kIYaQyXWYugyOKS3lOpH-33">
          <mxGeometry y="30" width="225" height="30" as="geometry" />
        </mxCell>
        <mxCell id="kIYaQyXWYugyOKS3lOpH-35" value="DYNAMODB" style="swimlane;fontStyle=0;childLayout=stackLayout;horizontal=1;startSize=30;horizontalStack=0;resizeParent=1;resizeParentMax=0;resizeLast=0;collapsible=1;marginBottom=0;" vertex="1" parent="1">
          <mxGeometry x="820" y="330" width="225" height="60" as="geometry" />
        </mxCell>
        <mxCell id="kIYaQyXWYugyOKS3lOpH-36" value="ORDER HISTORY" style="text;strokeColor=none;fillColor=none;align=left;verticalAlign=middle;spacingLeft=4;spacingRight=4;overflow=hidden;points=[[0,0.5],[1,0.5]];portConstraint=eastwest;rotatable=0;" vertex="1" parent="kIYaQyXWYugyOKS3lOpH-35">
          <mxGeometry y="30" width="225" height="30" as="geometry" />
        </mxCell>
        <mxCell id="kIYaQyXWYugyOKS3lOpH-37" style="edgeStyle=orthogonalEdgeStyle;rounded=0;orthogonalLoop=1;jettySize=auto;html=1;entryX=0;entryY=0.5;entryDx=0;entryDy=0;" edge="1" parent="1" source="kIYaQyXWYugyOKS3lOpH-21" target="kIYaQyXWYugyOKS3lOpH-26">
          <mxGeometry relative="1" as="geometry">
            <Array as="points">
              <mxPoint x="480" y="395" />
              <mxPoint x="480" y="90" />
            </Array>
          </mxGeometry>
        </mxCell>
        <mxCell id="kIYaQyXWYugyOKS3lOpH-38" value="DATA 이관 없음" style="swimlane;fontStyle=0;childLayout=stackLayout;horizontal=1;startSize=30;horizontalStack=0;resizeParent=1;resizeParentMax=0;resizeLast=0;collapsible=1;marginBottom=0;" vertex="1" parent="1">
          <mxGeometry x="500" y="20" width="225" height="60" as="geometry" />
        </mxCell>
        <mxCell id="kIYaQyXWYugyOKS3lOpH-39" value="HOTBLOCK TABLE =&gt; COLLECTION " style="text;strokeColor=none;fillColor=none;align=left;verticalAlign=middle;spacingLeft=4;spacingRight=4;overflow=hidden;points=[[0,0.5],[1,0.5]];portConstraint=eastwest;rotatable=0;" vertex="1" parent="kIYaQyXWYugyOKS3lOpH-38">
          <mxGeometry y="30" width="225" height="30" as="geometry" />
        </mxCell>
        <mxCell id="kIYaQyXWYugyOKS3lOpH-41" style="edgeStyle=orthogonalEdgeStyle;rounded=0;orthogonalLoop=1;jettySize=auto;html=1;entryX=0.015;entryY=0.042;entryDx=0;entryDy=0;entryPerimeter=0;" edge="1" parent="1" source="kIYaQyXWYugyOKS3lOpH-22" target="kIYaQyXWYugyOKS3lOpH-32">
          <mxGeometry relative="1" as="geometry">
            <Array as="points">
              <mxPoint x="520" y="425" />
              <mxPoint x="520" y="181" />
            </Array>
          </mxGeometry>
        </mxCell>
        <mxCell id="kIYaQyXWYugyOKS3lOpH-42" value="신규 Project" style="swimlane;fontStyle=0;childLayout=stackLayout;horizontal=1;startSize=30;horizontalStack=0;resizeParent=1;resizeParentMax=0;resizeLast=0;collapsible=1;marginBottom=0;" vertex="1" parent="1">
          <mxGeometry x="590" y="110" width="170" height="60" as="geometry" />
        </mxCell>
        <mxCell id="kIYaQyXWYugyOKS3lOpH-43" value="RANK() =&gt; zrevrank()" style="text;strokeColor=none;fillColor=none;align=left;verticalAlign=middle;spacingLeft=4;spacingRight=4;overflow=hidden;points=[[0,0.5],[1,0.5]];portConstraint=eastwest;rotatable=0;" vertex="1" parent="kIYaQyXWYugyOKS3lOpH-42">
          <mxGeometry y="30" width="170" height="30" as="geometry" />
        </mxCell>
        <mxCell id="kIYaQyXWYugyOKS3lOpH-44" style="edgeStyle=orthogonalEdgeStyle;rounded=0;orthogonalLoop=1;jettySize=auto;html=1;entryX=-0.004;entryY=0.06;entryDx=0;entryDy=0;entryPerimeter=0;" edge="1" parent="1" source="kIYaQyXWYugyOKS3lOpH-23" target="kIYaQyXWYugyOKS3lOpH-34">
          <mxGeometry relative="1" as="geometry">
            <Array as="points">
              <mxPoint x="560" y="455" />
              <mxPoint x="560" y="272" />
            </Array>
          </mxGeometry>
        </mxCell>
        <mxCell id="kIYaQyXWYugyOKS3lOpH-45" value="DMS" style="swimlane;fontStyle=0;childLayout=stackLayout;horizontal=1;startSize=30;horizontalStack=0;resizeParent=1;resizeParentMax=0;resizeLast=0;collapsible=1;marginBottom=0;" vertex="1" parent="1">
          <mxGeometry x="585" y="200" width="225" height="60" as="geometry" />
        </mxCell>
        <mxCell id="kIYaQyXWYugyOKS3lOpH-46" value="ARCHIVED DATA =&gt; DOCUMENT" style="text;strokeColor=none;fillColor=none;align=left;verticalAlign=middle;spacingLeft=4;spacingRight=4;overflow=hidden;points=[[0,0.5],[1,0.5]];portConstraint=eastwest;rotatable=0;" vertex="1" parent="kIYaQyXWYugyOKS3lOpH-45">
          <mxGeometry y="30" width="225" height="30" as="geometry" />
        </mxCell>
        <mxCell id="kIYaQyXWYugyOKS3lOpH-47" style="edgeStyle=orthogonalEdgeStyle;rounded=0;orthogonalLoop=1;jettySize=auto;html=1;entryX=0.019;entryY=0.042;entryDx=0;entryDy=0;entryPerimeter=0;" edge="1" parent="1" source="kIYaQyXWYugyOKS3lOpH-24" target="kIYaQyXWYugyOKS3lOpH-36">
          <mxGeometry relative="1" as="geometry">
            <Array as="points">
              <mxPoint x="600" y="490" />
              <mxPoint x="600" y="361" />
            </Array>
          </mxGeometry>
        </mxCell>
        <mxCell id="kIYaQyXWYugyOKS3lOpH-48" value="DMS" style="swimlane;fontStyle=0;childLayout=stackLayout;horizontal=1;startSize=30;horizontalStack=0;resizeParent=1;resizeParentMax=0;resizeLast=0;collapsible=1;marginBottom=0;" vertex="1" parent="1">
          <mxGeometry x="562.5" y="290" width="225" height="60" as="geometry" />
        </mxCell>
        <mxCell id="kIYaQyXWYugyOKS3lOpH-49" value="COMPLEX TABLE =&gt; KEY/VALUE" style="text;strokeColor=none;fillColor=none;align=left;verticalAlign=middle;spacingLeft=4;spacingRight=4;overflow=hidden;points=[[0,0.5],[1,0.5]];portConstraint=eastwest;rotatable=0;" vertex="1" parent="kIYaQyXWYugyOKS3lOpH-48">
          <mxGeometry y="30" width="225" height="30" as="geometry" />
        </mxCell>
      </root>
    </mxGraphModel>
  </diagram>
</mxfile>
